<svg width="147" height="37" viewBox="0 0 147 37" fill="none" xmlns="http://www.w3.org/2000/svg">
<g opacity="0.8">
<path d="M33.7967 21.8539V14.5668H37.0973C37.4646 14.5668 37.819 14.6109 38.1604 14.699C38.5054 14.7838 38.8264 14.9058 39.1232 15.0651C39.4201 15.2245 39.691 15.416 39.9359 15.6398C40.1845 15.8601 40.396 16.1059 40.5704 16.3771C40.7448 16.6449 40.8802 16.9348 40.9767 17.2467C41.0731 17.5552 41.1214 17.8773 41.1214 18.2129C41.1214 18.5485 41.0731 18.8723 40.9767 19.1841C40.8802 19.4926 40.7448 19.7825 40.5704 20.0537C40.396 20.3215 40.1845 20.5673 39.9359 20.7911C39.691 21.0114 39.4201 21.2013 39.1232 21.3606C38.8264 21.5165 38.5054 21.6386 38.1604 21.7267C37.819 21.8115 37.4646 21.8539 37.0973 21.8539H33.7967ZM37.0973 20.1859C37.3904 20.1859 37.6687 20.1351 37.9322 20.0334C38.1993 19.9283 38.4331 19.7876 38.6335 19.6113C38.8375 19.4316 38.9989 19.2214 39.1177 18.9807C39.2364 18.74 39.2958 18.4841 39.2958 18.2129C39.2958 17.9417 39.2364 17.6857 39.1177 17.445C38.9989 17.2043 38.8375 16.9941 38.6335 16.8144C38.4331 16.6348 38.1993 16.4941 37.9322 16.3924C37.6687 16.2873 37.3904 16.2347 37.0973 16.2347H35.6168V20.1859H37.0973Z" fill="#DEDEDE"/>
<path d="M47.901 21.8539H42.5912V14.5668H47.901V16.1229H44.4112V17.3992H47.2498V18.9553H44.4112V20.2978H47.901V21.8539Z" fill="#DEDEDE"/>
<path d="M51.8384 16.1635C51.7419 16.1635 51.6473 16.172 51.5545 16.189C51.4655 16.2025 51.3857 16.2263 51.3152 16.2602C51.2447 16.2941 51.1872 16.3364 51.1427 16.3873C51.1018 16.4381 51.0814 16.4992 51.0814 16.5704C51.0814 16.6788 51.1111 16.7636 51.1705 16.8246C51.2299 16.8856 51.3189 16.9399 51.4376 16.9873C51.5601 17.0314 51.7104 17.0772 51.8885 17.1246C52.0703 17.1687 52.2818 17.228 52.523 17.3026C52.831 17.3976 53.1111 17.5145 53.3634 17.6535C53.6194 17.7891 53.8365 17.9501 54.0146 18.1366C54.1964 18.3197 54.3374 18.5265 54.4376 18.757C54.5378 18.9875 54.5879 19.2452 54.5879 19.5299C54.5879 19.8825 54.5063 20.2063 54.343 20.5012C54.1797 20.7928 53.9608 21.0436 53.6862 21.2538C53.4154 21.464 53.1018 21.6284 52.7456 21.7471C52.3894 21.8623 52.0202 21.92 51.638 21.92C51.3115 21.92 50.9998 21.8759 50.703 21.7878C50.4098 21.6996 50.1389 21.5776 49.8903 21.4216C49.6454 21.2623 49.4302 21.0741 49.2447 20.8572C49.0592 20.6368 48.9145 20.3978 48.8106 20.1402L49.3894 19.835C49.4822 19.7876 49.5805 19.7503 49.6844 19.7232C49.792 19.6927 49.8996 19.6774 50.0072 19.6774C50.1668 19.6774 50.3096 19.7079 50.4358 19.7689C50.5657 19.83 50.6918 19.8961 50.8143 19.9673C50.9367 20.0385 51.0629 20.1046 51.1927 20.1656C51.3226 20.2266 51.471 20.2571 51.638 20.2571C51.7493 20.2571 51.8699 20.2419 51.9998 20.2114C52.1334 20.1775 52.2558 20.13 52.3671 20.069C52.4822 20.0079 52.5768 19.9334 52.651 19.8452C52.7252 19.7537 52.7623 19.6486 52.7623 19.5299C52.7623 19.4181 52.7271 19.3265 52.6566 19.2553C52.5898 19.1841 52.497 19.1231 52.3783 19.0723C52.2632 19.018 52.1297 18.9689 51.9775 18.9248C51.8254 18.8807 51.6658 18.8282 51.4989 18.7672C51.2243 18.6722 50.9534 18.5688 50.6863 18.457C50.4191 18.3451 50.1798 18.2078 49.9683 18.0451C49.7568 17.8789 49.5842 17.6789 49.4506 17.445C49.3208 17.2077 49.2558 16.9145 49.2558 16.5653C49.2558 16.2364 49.3282 15.9449 49.4729 15.6906C49.6213 15.433 49.8161 15.216 50.0573 15.0397C50.2985 14.8634 50.5731 14.7295 50.8811 14.638C51.1927 14.5431 51.5119 14.4956 51.8384 14.4956C52.0759 14.4956 52.3059 14.5329 52.5285 14.6075C52.7549 14.6787 52.9682 14.7736 53.1686 14.8922C53.369 15.0075 53.5564 15.1397 53.7308 15.2889C53.9052 15.4381 54.0629 15.5906 54.2039 15.7466L53.6417 16.1788C53.5304 16.2669 53.4135 16.3297 53.2911 16.367C53.1723 16.4042 53.0387 16.4229 52.8903 16.4229C52.7716 16.4229 52.6677 16.4093 52.5786 16.3822C52.4896 16.3551 52.4061 16.3263 52.3282 16.2958C52.2503 16.2619 52.1723 16.2313 52.0944 16.2042C52.0165 16.1771 51.9311 16.1635 51.8384 16.1635Z" fill="#DEDEDE"/>
<path d="M57.9991 21.8539H56.1735V14.5668H57.9991V21.8539Z" fill="#DEDEDE"/>
<path d="M66.8493 17.7654V20.9334C66.6377 21.1335 66.4095 21.2979 66.1647 21.4267C65.9235 21.5521 65.6711 21.6522 65.4077 21.7267C65.1442 21.7979 64.8734 21.8471 64.5951 21.8742C64.3205 21.9047 64.0422 21.92 63.7602 21.92C63.3854 21.92 63.0237 21.8759 62.6749 21.7878C62.3261 21.6996 61.9996 21.5759 61.6953 21.4165C61.3947 21.2538 61.1183 21.0606 60.866 20.8368C60.6174 20.6097 60.404 20.3588 60.2259 20.0842C60.0515 19.8096 59.9142 19.5147 59.814 19.1994C59.7176 18.8807 59.6693 18.5502 59.6693 18.2078C59.6693 17.8654 59.7176 17.5365 59.814 17.2213C59.9142 16.9026 60.0515 16.606 60.2259 16.3314C60.404 16.0568 60.6174 15.8076 60.866 15.5838C61.1183 15.3567 61.3947 15.1635 61.6953 15.0041C61.9996 14.8414 62.3261 14.716 62.6749 14.6278C63.0237 14.5397 63.3854 14.4956 63.7602 14.4956C64.0571 14.4956 64.352 14.5295 64.6452 14.5973C64.9383 14.6651 65.2222 14.7617 65.4968 14.8872C65.775 15.0092 66.0422 15.1601 66.2982 15.3397C66.558 15.5194 66.801 15.7211 67.0274 15.9449L66.5654 16.3822C66.3353 16.6026 66.0441 16.7127 65.6916 16.7127C65.4429 16.7127 65.2185 16.65 65.0181 16.5246C64.8326 16.4127 64.634 16.3246 64.4225 16.2602C64.2148 16.1924 63.994 16.1585 63.7602 16.1585C63.4522 16.1585 63.161 16.2127 62.8864 16.3212C62.6118 16.4297 62.3706 16.5771 62.1628 16.7636C61.9587 16.9467 61.7955 17.1636 61.673 17.4145C61.5506 17.662 61.4894 17.9264 61.4894 18.2078C61.4894 18.5027 61.5524 18.7756 61.6786 19.0265C61.8085 19.2774 61.9791 19.4943 62.1906 19.6774C62.4059 19.8571 62.6526 19.9995 62.9309 20.1046C63.2129 20.2063 63.5079 20.2571 63.8159 20.2571C64.0274 20.2571 64.2389 20.2385 64.4504 20.2012C64.6619 20.1639 64.853 20.108 65.0237 20.0334V19.3316C64.8456 19.3282 64.6823 19.3011 64.5339 19.2503C64.3854 19.1994 64.2574 19.1316 64.1498 19.0468C64.0459 18.9587 63.9643 18.857 63.9049 18.7417C63.8456 18.6231 63.8159 18.4926 63.8159 18.3502V17.7654H66.8493Z" fill="#DEDEDE"/>
<path d="M76.0303 21.8539H74.2214L70.4088 16.8144V21.8539H68.5943V14.5668H70.3865C70.5646 14.5668 70.7223 14.5905 70.8596 14.638C70.9969 14.6855 71.1026 14.7583 71.1769 14.8567L73.9653 18.5892C74.0061 18.6434 74.0414 18.7027 74.0711 18.7672C74.1008 18.8316 74.1267 18.8926 74.149 18.9502C74.1713 19.0045 74.188 19.0519 74.1991 19.0926C74.2102 19.1333 74.2158 19.1587 74.2158 19.1689V14.5668H76.0303V21.8539Z" fill="#DEDEDE"/>
<path d="M82.852 21.8539H81.416V14.5668H84.9447C85.2824 14.5668 85.5996 14.6244 85.8965 14.7397C86.197 14.855 86.4586 15.0126 86.6813 15.2126C86.9039 15.4126 87.0783 15.6482 87.2044 15.9195C87.3343 16.1873 87.3992 16.4737 87.3992 16.7789C87.3992 16.8704 87.3807 16.9806 87.3436 17.1094C87.3102 17.2382 87.262 17.3636 87.1989 17.4857C87.1358 17.6043 87.0579 17.7111 86.9651 17.8061C86.8761 17.8976 86.774 17.9535 86.659 17.9739C86.8148 17.9908 86.9577 18.0535 87.0876 18.162C87.2211 18.2671 87.3362 18.3993 87.4326 18.5587C87.5291 18.7146 87.6052 18.8841 87.6608 19.0672C87.7165 19.2503 87.7443 19.4248 87.7443 19.591C87.7443 19.9062 87.6775 20.2012 87.544 20.4758C87.4141 20.7504 87.236 20.9894 87.0096 21.1928C86.7833 21.3962 86.518 21.5572 86.2137 21.6759C85.9095 21.7911 85.5848 21.8488 85.2397 21.8488L82.852 21.8539ZM85.3065 20.191C85.3918 20.191 85.4716 20.1758 85.5458 20.1452C85.62 20.1113 85.685 20.0673 85.7406 20.013C85.7963 19.9554 85.8408 19.891 85.8742 19.8198C85.9076 19.7452 85.9243 19.6672 85.9243 19.5859C85.9243 19.5045 85.9076 19.4282 85.8742 19.357C85.8445 19.2858 85.8019 19.2248 85.7462 19.174C85.6905 19.1197 85.6256 19.0774 85.5514 19.0468C85.4772 19.0129 85.3974 18.996 85.3121 18.996H83.236V20.191H85.3065ZM83.236 16.2297V17.3281H85.0115C85.0894 17.3281 85.1636 17.3145 85.2341 17.2874C85.3046 17.2569 85.3659 17.2179 85.4178 17.1704C85.4698 17.1196 85.5106 17.0619 85.5403 16.9975C85.5699 16.9297 85.5848 16.8585 85.5848 16.7839C85.5848 16.7094 85.5699 16.6382 85.5403 16.5704C85.5106 16.5026 85.4698 16.4432 85.4178 16.3924C85.3659 16.3415 85.3046 16.3025 85.2341 16.2754C85.1636 16.2449 85.0894 16.2297 85.0115 16.2297H83.236Z" fill="#DEDEDE"/>
<path d="M93.4491 21.8539H91.6291V18.7621C91.6291 18.6943 91.605 18.6214 91.5567 18.5434C91.5085 18.4654 91.4528 18.3858 91.3898 18.3044L88.362 14.5668H89.848C90.1226 14.5668 90.3619 14.6176 90.566 14.7194C90.7738 14.8177 90.9482 14.955 91.0892 15.1313L92.3527 16.6975C92.3898 16.745 92.4194 16.7907 92.4417 16.8348C92.464 16.8755 92.4825 16.9145 92.4974 16.9517C92.5122 16.9924 92.5252 17.0314 92.5363 17.0687C92.5475 17.0314 92.5605 16.9924 92.5753 16.9517C92.5901 16.9145 92.6087 16.8755 92.6309 16.8348C92.6532 16.7907 92.6829 16.745 92.72 16.6975L93.9779 15.1414C94.1152 14.9482 94.2877 14.8041 94.4955 14.7092C94.707 14.6143 94.95 14.5668 95.2246 14.5668H96.7218L93.6885 18.3146C93.6217 18.3959 93.5642 18.4722 93.5159 18.5434C93.4714 18.6146 93.4491 18.6875 93.4491 18.7621V21.8539Z" fill="#DEDEDE"/>
<path d="M36.1845 28.2711C36.088 28.2711 35.9934 28.2796 35.9006 28.2965C35.8116 28.3101 35.7318 28.3338 35.6613 28.3677C35.5908 28.4016 35.5333 28.444 35.4888 28.4949C35.4479 28.5457 35.4275 28.6067 35.4275 28.6779C35.4275 28.7864 35.4572 28.8712 35.5166 28.9322C35.576 28.9932 35.665 29.0475 35.7837 29.0949C35.9062 29.139 36.0565 29.1848 36.2346 29.2322C36.4164 29.2763 36.6279 29.3356 36.8691 29.4102C37.1771 29.5051 37.4572 29.6221 37.7095 29.7611C37.9656 29.8967 38.1826 30.0577 38.3607 30.2442C38.5425 30.4272 38.6835 30.634 38.7837 30.8646C38.8839 31.0951 38.934 31.3527 38.934 31.6375C38.934 31.9901 38.8524 32.3138 38.6891 32.6088C38.5258 32.9003 38.3069 33.1512 38.0323 33.3614C37.7615 33.5716 37.4479 33.736 37.0917 33.8547C36.7355 33.9699 36.3663 34.0276 35.9841 34.0276C35.6576 34.0276 35.3459 33.9835 35.0491 33.8953C34.7559 33.8072 34.4851 33.6851 34.2364 33.5292C33.9916 33.3699 33.7763 33.1817 33.5908 32.9647C33.4053 32.7444 33.2606 32.5054 33.1567 32.2477L33.7355 31.9426C33.8283 31.8952 33.9266 31.8579 34.0305 31.8308C34.1381 31.8002 34.2457 31.785 34.3533 31.785C34.5129 31.785 34.6557 31.8155 34.7819 31.8765C34.9118 31.9375 35.0379 32.0036 35.1604 32.0748C35.2828 32.146 35.409 32.2121 35.5389 32.2732C35.6687 32.3342 35.8171 32.3647 35.9841 32.3647C36.0954 32.3647 36.216 32.3494 36.3459 32.3189C36.4795 32.285 36.6019 32.2376 36.7132 32.1765C36.8283 32.1155 36.9229 32.0409 36.9971 31.9528C37.0713 31.8613 37.1084 31.7562 37.1084 31.6375C37.1084 31.5256 37.0732 31.4341 37.0027 31.3629C36.9359 31.2917 36.8431 31.2307 36.7244 31.1798C36.6093 31.1256 36.4758 31.0765 36.3236 31.0324C36.1715 30.9883 36.0119 30.9358 35.845 30.8747C35.5704 30.7798 35.2995 30.6764 35.0324 30.5645C34.7652 30.4527 34.5259 30.3154 34.3144 30.1526C34.1029 29.9865 33.9303 29.7865 33.7967 29.5526C33.6669 29.3153 33.6019 29.022 33.6019 28.6729C33.6019 28.344 33.6743 28.0525 33.819 27.7982C33.9674 27.5406 34.1622 27.3236 34.4034 27.1473C34.6446 26.971 34.9192 26.8371 35.2272 26.7456C35.5389 26.6506 35.858 26.6032 36.1845 26.6032C36.422 26.6032 36.652 26.6405 36.8747 26.7151C37.101 26.7863 37.3144 26.8812 37.5147 26.9998C37.7151 27.1151 37.9025 27.2473 38.0769 27.3965C38.2513 27.5456 38.409 27.6982 38.55 27.8541L37.9878 28.2864C37.8765 28.3745 37.7596 28.4372 37.6372 28.4745C37.5184 28.5118 37.3849 28.5305 37.2364 28.5305C37.1177 28.5305 37.0138 28.5169 36.9247 28.4898C36.8357 28.4627 36.7522 28.4338 36.6743 28.4033C36.5964 28.3694 36.5184 28.3389 36.4405 28.3118C36.3626 28.2847 36.2773 28.2711 36.1845 28.2711Z" fill="#DEDEDE"/>
<path d="M48.9852 26.6744H50.5548L54.039 33.9614H52.8646C52.7421 33.9614 52.6234 33.9479 52.5084 33.9208C52.3971 33.8903 52.2932 33.8479 52.1967 33.7936C52.1002 33.736 52.013 33.6682 51.9351 33.5902C51.8572 33.5089 51.7941 33.4173 51.7459 33.3156L51.3562 32.5071H48.1837L47.8052 33.3156C47.7607 33.4072 47.6976 33.4919 47.616 33.5699C47.5381 33.6479 47.449 33.7174 47.3488 33.7784C47.2487 33.836 47.1411 33.8818 47.026 33.9157C46.911 33.9462 46.796 33.9614 46.6809 33.9614H45.501L48.9852 26.6744ZM48.9128 30.9968H50.616L49.9203 29.4712C49.8869 29.4 49.8609 29.3339 49.8423 29.2729C49.8238 29.2119 49.8089 29.1576 49.7978 29.1102C49.783 29.0559 49.7737 29.0051 49.77 28.9576C49.7626 29.0051 49.7514 29.0576 49.7366 29.1153C49.7255 29.1627 49.7088 29.217 49.6865 29.278C49.6679 29.339 49.6438 29.4034 49.6141 29.4712L48.9128 30.9968Z" fill="#DEDEDE"/>
<path d="M67.538 29.873V33.041C67.3265 33.241 67.0983 33.4055 66.8534 33.5343C66.6122 33.6597 66.3599 33.7597 66.0965 33.8343C65.833 33.9055 65.5621 33.9547 65.2839 33.9818C65.0093 34.0123 64.731 34.0276 64.449 34.0276C64.0742 34.0276 63.7124 33.9835 63.3636 33.8953C63.0149 33.8072 62.6883 33.6835 62.3841 33.5241C62.0835 33.3614 61.8071 33.1682 61.5548 32.9444C61.3061 32.7173 61.0928 32.4664 60.9147 32.1918C60.7403 31.9172 60.603 31.6223 60.5028 31.307C60.4063 30.9883 60.3581 30.6578 60.3581 30.3154C60.3581 29.973 60.4063 29.6441 60.5028 29.3288C60.603 29.0102 60.7403 28.7135 60.9147 28.4389C61.0928 28.1643 61.3061 27.9152 61.5548 27.6914C61.8071 27.4643 62.0835 27.271 62.3841 27.1117C62.6883 26.949 63.0149 26.8235 63.3636 26.7354C63.7124 26.6473 64.0742 26.6032 64.449 26.6032C64.7458 26.6032 65.0408 26.6371 65.334 26.7049C65.6271 26.7727 65.9109 26.8693 66.1855 26.9947C66.4638 27.1168 66.731 27.2676 66.987 27.4473C67.2467 27.627 67.4898 27.8287 67.7161 28.0525L67.2542 28.4898C67.0241 28.7101 66.7328 28.8203 66.3803 28.8203C66.1317 28.8203 65.9072 28.7576 65.7069 28.6322C65.5213 28.5203 65.3228 28.4322 65.1113 28.3677C64.9035 28.2999 64.6828 28.266 64.449 28.266C64.141 28.266 63.8497 28.3203 63.5751 28.4288C63.3006 28.5372 63.0594 28.6847 62.8516 28.8712C62.6475 29.0542 62.4842 29.2712 62.3618 29.5221C62.2394 29.7696 62.1781 30.034 62.1781 30.3154C62.1781 30.6103 62.2412 30.8832 62.3674 31.1341C62.4972 31.385 62.6679 31.6019 62.8794 31.785C63.0946 31.9647 63.3414 32.107 63.6197 32.2121C63.9017 32.3138 64.1967 32.3647 64.5046 32.3647C64.7161 32.3647 64.9276 32.3461 65.1391 32.3088C65.3507 32.2715 65.5417 32.2155 65.7124 32.1409V31.4392C65.5343 31.4358 65.3711 31.4087 65.2226 31.3578C65.0742 31.307 64.9462 31.2392 64.8386 31.1544C64.7347 31.0663 64.6531 30.9646 64.5937 30.8493C64.5343 30.7307 64.5046 30.6001 64.5046 30.4578V29.873H67.538Z" fill="#DEDEDE"/>
<path d="M77.9379 26.6744H79.5075L82.9917 33.9614H81.8173C81.6949 33.9614 81.5761 33.9479 81.4611 33.9208C81.3498 33.8903 81.2459 33.8479 81.1494 33.7936C81.053 33.736 80.9658 33.6682 80.8878 33.5902C80.8099 33.5089 80.7468 33.4173 80.6986 33.3156L80.309 32.5071H77.1365L76.758 33.3156C76.7135 33.4072 76.6504 33.4919 76.5687 33.5699C76.4908 33.6479 76.4018 33.7174 76.3016 33.7784C76.2014 33.836 76.0938 33.8818 75.9788 33.9157C75.8637 33.9462 75.7487 33.9614 75.6337 33.9614H74.4537L77.9379 26.6744ZM77.8656 30.9968H79.5687L78.873 29.4712C78.8396 29.4 78.8136 29.3339 78.7951 29.2729C78.7765 29.2119 78.7617 29.1576 78.7506 29.1102C78.7357 29.0559 78.7264 29.0051 78.7227 28.9576C78.7153 29.0051 78.7042 29.0576 78.6893 29.1153C78.6782 29.1627 78.6615 29.217 78.6392 29.278C78.6207 29.339 78.5966 29.4034 78.5669 29.4712L77.8656 30.9968Z" fill="#DEDEDE"/>
<path d="M92.0409 33.9614H90.2209V26.6744H93.3489C93.6494 26.6744 93.9258 26.71 94.1782 26.7812C94.4342 26.8524 94.6642 26.949 94.8683 27.071C95.0761 27.1897 95.2579 27.3321 95.4138 27.4982C95.5733 27.6609 95.7051 27.8372 95.809 28.027C95.9166 28.2135 95.9963 28.4067 96.0483 28.6067C96.1039 28.8068 96.1318 29.0051 96.1318 29.2017C96.1318 29.395 96.1077 29.5882 96.0594 29.7814C96.0149 29.9713 95.9425 30.1577 95.8423 30.3408C95.7422 30.5239 95.6123 30.7001 95.4527 30.8697C95.2932 31.0358 95.1002 31.1917 94.8739 31.3375L97 33.9614H95.4806H95.4472C95.4138 33.9614 95.3563 33.9564 95.2746 33.9462C95.1967 33.936 95.1077 33.9123 95.0075 33.875C94.9073 33.8377 94.8015 33.7818 94.6902 33.7072C94.5789 33.6326 94.4732 33.5292 94.373 33.397L93.0372 31.7443H92.0409V33.9614ZM93.4435 30.0713C93.5548 30.0713 93.6624 30.0459 93.7663 29.995C93.8702 29.9441 93.9611 29.878 94.039 29.7967C94.1207 29.7153 94.1856 29.6238 94.2338 29.5221C94.2821 29.417 94.3062 29.3119 94.3062 29.2068C94.3062 29.1017 94.2821 28.9983 94.2338 28.8966C94.1856 28.7915 94.1207 28.6983 94.039 28.6169C93.9611 28.5356 93.8702 28.4694 93.7663 28.4186C93.6624 28.3677 93.5548 28.3423 93.4435 28.3423H92.0409V30.0713H93.4435Z" fill="#DEDEDE"/>
</g>
<path opacity="0.8" d="M29.0543 23.2768C29.0543 30.3332 23.3338 36.0536 16.2771 36.0536C9.22051 36.0536 3.5 30.3332 3.5 23.2768C3.5 16.2204 9.22051 10.5 16.2771 10.5C23.3338 10.5 29.0543 16.2204 29.0543 23.2768Z" stroke="#696969"/>
<circle opacity="0.8" cx="16.48" cy="23.48" r="9.98" stroke="#696969"/>
<path opacity="0.8" d="M22.1895 23.3432C22.1895 26.5701 19.5728 29.1863 16.3447 29.1863C13.1167 29.1863 10.5 26.5701 10.5 23.3432C10.5 20.1162 13.1167 17.5 16.3447 17.5C19.5728 17.5 22.1895 20.1162 22.1895 23.3432Z" stroke="#696969"/>
<path fill-rule="evenodd" clip-rule="evenodd" d="M12.6762 25.4854L12.3893 28.6427L20.5934 34.9073L20.3292 31.6866L12.6762 25.4854Z" fill="#DEDEDE"/>
<path d="M12.9008 22.8916L13.1815 19.8604L19.6881 25.4773L20.0249 28.9862L12.9008 22.8916Z" fill="#DEDEDE"/>
<path d="M18.8214 16.6904L19.3428 22.0545L13.4692 17.1818V16.6904H18.8214Z" fill="#DEDEDE"/>
<path d="M13.6341 14.9473V16.0201H18.7406V14.9473H13.6341Z" fill="#DEDEDE"/>
<g clip-path="url(#clip0_190_404)">
<path d="M41.359 38.6353H-5.07324V-4.07101H41.359V38.6353Z" stroke="#DEDEDE" stroke-width="0.5669" stroke-miterlimit="22.9256"/>
<path fill-rule="evenodd" clip-rule="evenodd" d="M12.6496 9.89602C12.4653 9.36837 12.2596 8.77916 12.0324 8.03581C13.9234 5.92328 15.1788 3.36642 15.7984 0.365413L16.0666 0.363276V8.11949C15.3524 8.20661 14.8014 8.76857 14.8014 9.44883C14.8014 10.1895 15.4546 10.7899 16.2604 10.7899C17.0662 10.7899 17.7194 10.1895 17.7194 9.44883C17.7194 8.75784 17.1508 8.1889 16.4203 8.11572V0.360608L16.7056 0.358471C16.8143 2.3831 18.0647 4.94459 20.4566 8.04293C20.2322 8.68695 20.0303 9.21804 19.851 9.68987C19.2601 11.2443 18.9137 12.1557 18.8117 14.3438H13.6465C13.4574 12.2099 13.1251 11.2581 12.6496 9.89602Z" fill="#DEDEDE"/>
</g>
<defs>
<clipPath id="clip0_190_404">
<rect width="8.46216" height="13.2766" fill="white" transform="matrix(1 0 0 -1 12.0293 14.2769)"/>
</clipPath>
</defs>
</svg>
