<svg width="1296" height="540" viewBox="0 0 1296 540" fill="none" xmlns="http://www.w3.org/2000/svg">
<g opacity="0.8">
<path d="M451.552 321.121V214.046H495.65C500.558 214.046 505.292 214.694 509.853 215.989C514.464 217.234 518.752 219.027 522.718 221.369C526.684 223.71 530.303 226.525 533.575 229.812C536.897 233.05 539.723 236.662 542.053 240.647C544.383 244.582 546.193 248.841 547.482 253.424C548.77 257.957 549.415 262.689 549.415 267.621C549.415 272.553 548.77 277.31 547.482 281.893C546.193 286.426 544.383 290.685 542.053 294.67C539.723 298.605 536.897 302.217 533.575 305.505C530.303 308.743 526.684 311.532 522.718 313.873C518.752 316.165 514.464 317.958 509.853 319.253C505.292 320.499 500.558 321.121 495.65 321.121H451.552ZM495.65 296.613C499.566 296.613 503.284 295.866 506.804 294.371C510.374 292.827 513.497 290.76 516.174 288.169C518.901 285.529 521.057 282.441 522.644 278.904C524.23 275.367 525.024 271.606 525.024 267.621C525.024 263.636 524.23 259.875 522.644 256.338C521.057 252.801 518.901 249.713 516.174 247.073C513.497 244.433 510.374 242.365 506.804 240.871C503.284 239.327 499.566 238.555 495.65 238.555H475.869V296.613H495.65Z" fill="#DEDEDE"/>
<path d="M639.996 321.121H569.053V214.046H639.996V236.911H593.37V255.666H631.296V278.53H593.37V298.257H639.996V321.121Z" fill="#DEDEDE"/>
<path d="M692.603 237.509C691.314 237.509 690.05 237.633 688.81 237.882C687.621 238.081 686.555 238.43 685.613 238.928C684.671 239.426 683.902 240.049 683.307 240.796C682.762 241.543 682.489 242.44 682.489 243.486C682.489 245.08 682.886 246.326 683.679 247.222C684.473 248.119 685.662 248.916 687.249 249.613C688.885 250.261 690.893 250.933 693.272 251.631C695.701 252.278 698.527 253.15 701.75 254.246C705.865 255.641 709.608 257.359 712.979 259.402C716.4 261.394 719.3 263.761 721.679 266.5C724.109 269.19 725.992 272.229 727.331 275.616C728.67 279.004 729.339 282.789 729.339 286.974C729.339 292.155 728.248 296.912 726.067 301.246C723.885 305.53 720.96 309.216 717.292 312.304C713.673 315.393 709.484 317.809 704.724 319.552C699.965 321.246 695.032 322.093 689.926 322.093C685.563 322.093 681.399 321.445 677.433 320.15C673.516 318.855 669.897 317.062 666.576 314.77C663.304 312.429 660.428 309.664 657.949 306.476C655.471 303.238 653.537 299.726 652.149 295.94L659.883 291.457C661.122 290.76 662.436 290.212 663.824 289.813C665.262 289.365 666.7 289.141 668.137 289.141C670.269 289.141 672.178 289.589 673.863 290.486C675.598 291.382 677.284 292.354 678.92 293.4C680.556 294.446 682.242 295.417 683.977 296.314C685.712 297.211 687.695 297.659 689.926 297.659C691.413 297.659 693.024 297.435 694.76 296.986C696.544 296.488 698.18 295.791 699.668 294.894C701.204 293.998 702.469 292.902 703.46 291.607C704.452 290.262 704.947 288.717 704.947 286.974C704.947 285.33 704.476 283.985 703.535 282.939C702.642 281.893 701.403 280.996 699.816 280.249C698.279 279.452 696.495 278.73 694.462 278.082C692.429 277.434 690.298 276.662 688.067 275.766C684.398 274.371 680.779 272.852 677.21 271.208C673.64 269.564 670.443 267.546 667.617 265.155C664.791 262.714 662.486 259.775 660.701 256.338C658.966 252.851 658.098 248.542 658.098 243.411C658.098 238.58 659.065 234.295 660.998 230.559C662.981 226.774 665.584 223.585 668.806 220.995C672.029 218.405 675.698 216.437 679.812 215.092C683.977 213.697 688.24 213 692.603 213C695.776 213 698.85 213.548 701.824 214.644C704.848 215.69 707.699 217.085 710.376 218.828C713.053 220.522 715.557 222.465 717.887 224.656C720.217 226.848 722.324 229.09 724.208 231.381L716.697 237.733C715.21 239.028 713.648 239.949 712.012 240.497C710.426 241.045 708.641 241.319 706.658 241.319C705.071 241.319 703.683 241.12 702.493 240.722C701.304 240.323 700.188 239.9 699.147 239.451C698.106 238.953 697.065 238.505 696.024 238.106C694.983 237.708 693.842 237.509 692.603 237.509Z" fill="#DEDEDE"/>
<path d="M774.915 321.121H750.523V214.046H774.915V321.121Z" fill="#DEDEDE"/>
<path d="M893.161 261.046V307.597C890.335 310.536 887.286 312.952 884.014 314.845C880.791 316.688 877.42 318.157 873.9 319.253C870.38 320.299 866.761 321.022 863.043 321.42C859.374 321.869 855.656 322.093 851.888 322.093C846.881 322.093 842.048 321.445 837.388 320.15C832.727 318.855 828.365 317.037 824.299 314.695C820.284 312.304 816.59 309.465 813.219 306.177C809.898 302.84 807.047 299.153 804.667 295.118C802.337 291.083 800.503 286.75 799.164 282.117C797.875 277.434 797.231 272.578 797.231 267.546C797.231 262.515 797.875 257.683 799.164 253.05C800.503 248.368 802.337 244.009 804.667 239.974C807.047 235.939 809.898 232.278 813.219 228.99C816.59 225.653 820.284 222.813 824.299 220.472C828.365 218.081 832.727 216.238 837.388 214.943C842.048 213.648 846.881 213 851.888 213C855.855 213 859.796 213.498 863.712 214.494C867.629 215.491 871.421 216.91 875.09 218.754C878.808 220.547 882.378 222.764 885.799 225.404C889.269 228.044 892.516 231.008 895.54 234.295L889.368 240.722C886.294 243.959 882.403 245.578 877.693 245.578C874.371 245.578 871.372 244.657 868.695 242.814C866.216 241.17 863.564 239.875 860.738 238.928C857.962 237.932 855.012 237.434 851.888 237.434C847.774 237.434 843.882 238.231 840.213 239.825C836.545 241.419 833.322 243.586 830.546 246.326C827.819 249.016 825.638 252.204 824.002 255.89C822.366 259.526 821.548 263.412 821.548 267.546C821.548 271.88 822.391 275.89 824.076 279.576C825.812 283.263 828.092 286.451 830.918 289.141C833.793 291.781 837.09 293.873 840.808 295.417C844.576 296.912 848.517 297.659 852.632 297.659C855.458 297.659 858.284 297.385 861.11 296.837C863.935 296.289 866.489 295.467 868.769 294.371V284.06C866.39 284.01 864.208 283.611 862.225 282.864C860.242 282.117 858.532 281.121 857.094 279.875C855.706 278.58 854.615 277.086 853.822 275.392C853.029 273.649 852.632 271.731 852.632 269.639V261.046H893.161Z" fill="#DEDEDE"/>
<path d="M1015.83 321.121H991.658L940.719 247.073V321.121H916.476V214.046H940.421C942.801 214.046 944.908 214.395 946.742 215.092C948.577 215.79 949.989 216.861 950.981 218.305L988.237 273.15C988.783 273.947 989.254 274.819 989.65 275.766C990.047 276.712 990.394 277.609 990.691 278.456C990.989 279.253 991.212 279.95 991.361 280.548C991.509 281.146 991.584 281.519 991.584 281.669V214.046H1015.83V321.121Z" fill="#DEDEDE"/>
<path d="M1106.97 321.121H1087.78V214.046H1134.93C1139.44 214.046 1143.68 214.893 1147.65 216.587C1151.66 218.28 1155.16 220.597 1158.13 223.536C1161.11 226.475 1163.44 229.937 1165.12 233.922C1166.86 237.857 1167.73 242.066 1167.73 246.55C1167.73 247.895 1167.48 249.514 1166.98 251.407C1166.54 253.3 1165.89 255.143 1165.05 256.936C1164.21 258.679 1163.16 260.249 1161.93 261.643C1160.74 262.988 1159.37 263.81 1157.84 264.109C1159.92 264.358 1161.83 265.28 1163.56 266.874C1165.35 268.418 1166.88 270.361 1168.17 272.702C1169.46 274.994 1170.48 277.484 1171.22 280.174C1171.96 282.864 1172.34 285.43 1172.34 287.87C1172.34 292.503 1171.44 296.837 1169.66 300.872C1167.92 304.907 1165.54 308.419 1162.52 311.408C1159.5 314.396 1155.95 316.763 1151.89 318.506C1147.82 320.2 1143.48 321.047 1138.87 321.047L1106.97 321.121ZM1139.76 296.688C1140.9 296.688 1141.97 296.463 1142.96 296.015C1143.95 295.517 1144.82 294.869 1145.56 294.072C1146.31 293.225 1146.9 292.279 1147.35 291.233C1147.8 290.137 1148.02 288.991 1148.02 287.796C1148.02 286.6 1147.8 285.479 1147.35 284.433C1146.95 283.387 1146.38 282.491 1145.64 281.743C1144.9 280.946 1144.03 280.324 1143.04 279.875C1142.05 279.377 1140.98 279.128 1139.84 279.128H1112.1V296.688H1139.76ZM1112.1 238.48V254.62H1135.82C1136.86 254.62 1137.86 254.42 1138.8 254.022C1139.74 253.574 1140.56 253.001 1141.25 252.303C1141.95 251.556 1142.49 250.709 1142.89 249.763C1143.28 248.766 1143.48 247.72 1143.48 246.624C1143.48 245.529 1143.28 244.482 1142.89 243.486C1142.49 242.49 1141.95 241.618 1141.25 240.871C1140.56 240.124 1139.74 239.551 1138.8 239.152C1137.86 238.704 1136.86 238.48 1135.82 238.48H1112.1Z" fill="#DEDEDE"/>
<path d="M1248.56 321.121H1224.24V275.691C1224.24 274.695 1223.92 273.624 1223.27 272.478C1222.63 271.332 1221.88 270.162 1221.04 268.966L1180.59 214.046H1200.44C1204.11 214.046 1207.31 214.793 1210.04 216.288C1212.81 217.732 1215.14 219.75 1217.03 222.34L1233.91 245.354C1234.4 246.052 1234.8 246.724 1235.1 247.372C1235.39 247.969 1235.64 248.542 1235.84 249.09C1236.04 249.688 1236.21 250.261 1236.36 250.809C1236.51 250.261 1236.68 249.688 1236.88 249.09C1237.08 248.542 1237.33 247.969 1237.63 247.372C1237.92 246.724 1238.32 246.052 1238.82 245.354L1255.62 222.49C1257.46 219.65 1259.76 217.533 1262.54 216.138C1265.36 214.743 1268.61 214.046 1272.28 214.046H1292.28L1251.75 269.116C1250.86 270.311 1250.09 271.432 1249.45 272.478C1248.85 273.524 1248.56 274.595 1248.56 275.691V321.121Z" fill="#DEDEDE"/>
<path d="M483.454 415.416C482.165 415.416 480.901 415.54 479.661 415.789C478.472 415.989 477.406 416.337 476.464 416.835C475.522 417.334 474.753 417.956 474.159 418.703C473.613 419.451 473.341 420.347 473.341 421.393C473.341 422.988 473.737 424.233 474.53 425.13C475.324 426.026 476.513 426.823 478.1 427.521C479.736 428.168 481.744 428.841 484.123 429.538C486.553 430.186 489.378 431.057 492.601 432.153C496.716 433.548 500.459 435.267 503.83 437.309C507.251 439.302 510.151 441.668 512.53 444.408C514.96 447.097 516.844 450.136 518.182 453.524C519.521 456.911 520.19 460.697 520.19 464.881C520.19 470.062 519.099 474.819 516.918 479.153C514.737 483.437 511.812 487.123 508.143 490.212C504.524 493.3 500.335 495.716 495.575 497.459C490.816 499.153 485.883 500 480.777 500C476.414 500 472.25 499.352 468.284 498.057C464.367 496.762 460.748 494.969 457.427 492.677C454.155 490.336 451.279 487.571 448.8 484.383C446.322 481.145 444.388 477.633 443 473.848L450.734 469.364C451.973 468.667 453.287 468.119 454.675 467.72C456.113 467.272 457.551 467.048 458.988 467.048C461.12 467.048 463.029 467.496 464.714 468.393C466.449 469.29 468.135 470.261 469.771 471.307C471.407 472.353 473.093 473.325 474.828 474.221C476.563 475.118 478.546 475.566 480.777 475.566C482.264 475.566 483.875 475.342 485.611 474.894C487.395 474.396 489.031 473.698 490.519 472.802C492.055 471.905 493.32 470.809 494.311 469.514C495.303 468.169 495.798 466.625 495.798 464.881C495.798 463.237 495.328 461.892 494.386 460.846C493.493 459.8 492.254 458.903 490.667 458.156C489.131 457.359 487.346 456.637 485.313 455.989C483.281 455.342 481.149 454.57 478.918 453.673C475.249 452.278 471.63 450.759 468.061 449.115C464.491 447.471 461.294 445.454 458.468 443.063C455.642 440.622 453.337 437.683 451.552 434.245C449.817 430.759 448.949 426.45 448.949 421.319C448.949 416.487 449.916 412.203 451.849 408.467C453.832 404.681 456.435 401.493 459.658 398.902C462.88 396.312 466.549 394.344 470.663 392.999C474.828 391.605 479.091 390.907 483.454 390.907C486.627 390.907 489.701 391.455 492.675 392.551C495.699 393.597 498.55 394.992 501.227 396.736C503.904 398.429 506.408 400.372 508.738 402.564C511.068 404.756 513.175 406.997 515.059 409.289L507.548 415.64C506.061 416.935 504.499 417.857 502.863 418.405C501.277 418.953 499.492 419.227 497.509 419.227C495.922 419.227 494.534 419.027 493.344 418.629C492.155 418.23 491.039 417.807 489.998 417.359C488.957 416.86 487.916 416.412 486.875 416.014C485.834 415.615 484.693 415.416 483.454 415.416Z" fill="#DEDEDE"/>
<path d="M654.482 391.953H675.453L722.005 499.029H706.314C704.678 499.029 703.091 498.829 701.555 498.431C700.067 497.983 698.679 497.36 697.39 496.563C696.101 495.716 694.936 494.72 693.895 493.574C692.854 492.378 692.011 491.033 691.367 489.539L686.161 477.658H643.774L638.717 489.539C638.122 490.884 637.279 492.129 636.189 493.275C635.147 494.421 633.958 495.442 632.619 496.339C631.281 497.186 629.843 497.858 628.306 498.356C626.769 498.804 625.232 499.029 623.695 499.029H607.93L654.482 391.953ZM653.515 455.466H676.271L666.975 433.05C666.529 432.004 666.182 431.032 665.934 430.136C665.686 429.239 665.488 428.442 665.339 427.745C665.141 426.948 665.017 426.2 664.967 425.503C664.868 426.2 664.72 426.973 664.521 427.819C664.373 428.517 664.149 429.314 663.852 430.211C663.604 431.107 663.282 432.054 662.885 433.05L653.515 455.466Z" fill="#DEDEDE"/>
<path d="M902.363 438.953V485.504C899.537 488.443 896.488 490.859 893.216 492.752C889.994 494.595 886.623 496.065 883.103 497.161C879.583 498.207 875.964 498.929 872.246 499.328C868.577 499.776 864.859 500 861.091 500C856.084 500 851.25 499.352 846.59 498.057C841.93 496.762 837.567 494.944 833.502 492.603C829.486 490.212 825.793 487.372 822.422 484.084C819.1 480.747 816.25 477.061 813.87 473.026C811.54 468.991 809.705 464.657 808.367 460.024C807.078 455.342 806.433 450.485 806.433 445.454C806.433 440.422 807.078 435.59 808.367 430.958C809.705 426.275 811.54 421.917 813.87 417.882C816.25 413.847 819.1 410.185 822.422 406.898C825.793 403.56 829.486 400.721 833.502 398.379C837.567 395.988 841.93 394.145 846.59 392.85C851.25 391.555 856.084 390.907 861.091 390.907C865.057 390.907 868.998 391.405 872.915 392.402C876.831 393.398 880.624 394.818 884.293 396.661C888.011 398.454 891.58 400.671 895.001 403.311C898.471 405.951 901.719 408.915 904.743 412.203L898.571 418.629C895.497 421.867 891.605 423.486 886.895 423.486C883.574 423.486 880.574 422.564 877.897 420.721C875.419 419.077 872.766 417.782 869.94 416.835C867.164 415.839 864.214 415.341 861.091 415.341C856.976 415.341 853.085 416.138 849.416 417.732C845.747 419.326 842.525 421.493 839.749 424.233C837.022 426.923 834.841 430.111 833.205 433.797C831.569 437.434 830.751 441.319 830.751 445.454C830.751 449.787 831.593 453.797 833.279 457.484C835.014 461.17 837.295 464.358 840.12 467.048C842.996 469.688 846.293 471.78 850.011 473.325C853.779 474.819 857.72 475.566 861.835 475.566C864.661 475.566 867.486 475.292 870.312 474.744C873.138 474.196 875.691 473.374 877.972 472.279V461.967C875.592 461.917 873.411 461.519 871.428 460.771C869.445 460.024 867.734 459.028 866.297 457.783C864.908 456.487 863.818 454.993 863.025 453.299C862.231 451.556 861.835 449.638 861.835 447.546V438.953H902.363Z" fill="#DEDEDE"/>
<path d="M1041.31 391.953H1062.29L1108.84 499.029H1093.15C1091.51 499.029 1089.92 498.829 1088.39 498.431C1086.9 497.983 1085.51 497.36 1084.22 496.563C1082.93 495.716 1081.77 494.72 1080.73 493.574C1079.69 492.378 1078.84 491.033 1078.2 489.539L1072.99 477.658H1030.61L1025.55 489.539C1024.95 490.884 1024.11 492.129 1023.02 493.275C1021.98 494.421 1020.79 495.442 1019.45 496.339C1018.11 497.186 1016.68 497.858 1015.14 498.356C1013.6 498.804 1012.06 499.029 1010.53 499.029H994.763L1041.31 391.953ZM1040.35 455.466H1063.1L1053.81 433.05C1053.36 432.004 1053.01 431.032 1052.77 430.136C1052.52 429.239 1052.32 428.442 1052.17 427.745C1051.97 426.948 1051.85 426.2 1051.8 425.503C1051.7 426.2 1051.55 426.973 1051.35 427.819C1051.21 428.517 1050.98 429.314 1050.68 430.211C1050.44 431.107 1050.11 432.054 1049.72 433.05L1040.35 455.466Z" fill="#DEDEDE"/>
<path d="M1229.74 499.029H1205.42V391.953H1247.22C1251.23 391.953 1254.93 392.476 1258.3 393.523C1261.72 394.569 1264.79 395.988 1267.52 397.782C1270.29 399.525 1272.72 401.617 1274.81 404.058C1276.94 406.449 1278.7 409.04 1280.09 411.829C1281.52 414.569 1282.59 417.408 1283.28 420.347C1284.03 423.286 1284.4 426.201 1284.4 429.09C1284.4 431.929 1284.08 434.769 1283.43 437.608C1282.84 440.398 1281.87 443.137 1280.53 445.827C1279.19 448.517 1277.46 451.108 1275.33 453.598C1273.2 456.039 1270.62 458.331 1267.59 460.473L1296 499.029H1275.7H1275.25C1274.81 499.029 1274.04 498.954 1272.95 498.804C1271.91 498.655 1270.72 498.306 1269.38 497.758C1268.04 497.21 1266.63 496.388 1265.14 495.293C1263.65 494.197 1262.24 492.677 1260.9 490.735L1243.05 466.45H1229.74V499.029ZM1248.48 441.867C1249.97 441.867 1251.41 441.493 1252.79 440.746C1254.18 439.999 1255.4 439.028 1256.44 437.832C1257.53 436.637 1258.4 435.292 1259.04 433.797C1259.69 432.253 1260.01 430.709 1260.01 429.164C1260.01 427.62 1259.69 426.101 1259.04 424.606C1258.4 423.062 1257.53 421.692 1256.44 420.497C1255.4 419.301 1254.18 418.33 1252.79 417.583C1251.41 416.835 1249.97 416.462 1248.48 416.462H1229.74V441.867H1248.48Z" fill="#DEDEDE"/>
</g>
<path opacity="0.8" d="M376.284 338.265C376.284 439.894 293.897 522.28 192.267 522.28C90.6371 522.28 8.25 439.894 8.25 338.265C8.25 236.636 90.6371 154.25 192.267 154.25C293.897 154.25 376.284 236.636 376.284 338.265Z" stroke="#696969" stroke-width="16.5"/>
<circle opacity="0.8" cx="192" cy="339" r="129.75" stroke="#696969" stroke-width="16.5"/>
<path opacity="0.8" d="M275.507 338.88C275.507 385.068 238.065 422.51 191.878 422.51C145.692 422.51 108.25 385.068 108.25 338.88C108.25 292.692 145.692 255.25 191.878 255.25C238.065 255.25 275.507 292.692 275.507 338.88Z" stroke="#696969" stroke-width="16.5"/>
<path fill-rule="evenodd" clip-rule="evenodd" d="M140.121 389.948L135.967 440.231L254.771 540L250.945 488.708L140.121 389.948Z" fill="#DEDEDE"/>
<path d="M143.374 348.634L147.438 300.358L241.661 389.813L246.538 445.695L143.374 348.634Z" fill="#DEDEDE"/>
<path d="M229.11 249.879L236.661 335.307L151.605 257.705V249.879H229.11Z" fill="#DEDEDE"/>
<path d="M153.993 222.118V239.204H227.94V222.118H153.993Z" fill="#DEDEDE"/>
<g clip-path="url(#clip0_170_424)">
<path d="M555.478 599.369H-116.909V-80.7658H555.478V599.369Z" stroke="#DEDEDE" stroke-width="0.5669" stroke-miterlimit="22.9256"/>
<path fill-rule="evenodd" clip-rule="evenodd" d="M139.735 141.676C137.068 133.273 134.089 123.889 130.798 112.05C158.181 78.4064 176.361 37.6862 185.335 -10.1074L189.218 -10.1415V113.383C178.876 114.77 170.896 123.72 170.896 134.554C170.896 146.35 180.355 155.912 192.024 155.912C203.692 155.912 213.152 146.35 213.152 134.554C213.152 123.549 204.918 114.488 194.339 113.323V-10.184L198.471 -10.218C200.046 22.026 218.153 62.82 252.789 112.164C249.54 122.42 246.616 130.878 244.019 138.393C235.463 163.149 230.446 177.663 228.97 212.51H154.172C151.434 178.527 146.622 163.368 139.735 141.676Z" fill="#DEDEDE"/>
</g>
<defs>
<clipPath id="clip0_170_424">
<rect width="122.541" height="211.442" fill="white" transform="matrix(1 0 0 -1 130.753 211.442)"/>
</clipPath>
</defs>
</svg>
